<?xml version="1.0" encoding="iso-8859-1"?>
<!-- Uploaded to: SVG Repo, www.svgrepo.com, Generator: SVG Repo Mixer Tools -->
<svg height="800px" width="800px" version="1.1" id="Layer_1" xmlns="http://www.w3.org/2000/svg" xmlns:xlink="http://www.w3.org/1999/xlink" 
	 viewBox="0 0 512.455 512.455" xml:space="preserve">
<g transform="translate(0 1)">
	<g>
		<path style="fill:#FFE100;" d="M265.044,105.158c-5.297,0-8.828-3.531-8.828-8.828V8.055c0-5.297,3.531-8.828,8.828-8.828
			c5.297,0,8.828,3.531,8.828,8.828v88.276C273.871,101.627,270.34,105.158,265.044,105.158z"/>
		<path style="fill:#FFE100;" d="M194.423,511.227c-0.883,0-2.648,0-3.531-0.883c-4.414-1.766-6.179-7.062-3.531-11.476
			l33.545-67.09l-24.717-67.09c-0.883-2.648-0.883-6.179,1.766-8.828l35.31-44.138c2.648-3.531,8.828-4.414,12.359-1.766
			c3.531,2.648,4.414,8.828,1.766,12.359l-31.779,40.607l24.717,66.207c0.883,2.648,0.883,4.414,0,7.062l-35.31,70.621
			C200.602,509.462,197.954,511.227,194.423,511.227z"/>
		<path style="fill:#FFE100;" d="M159.113,378.813c-0.883,0-2.648,0-3.531-0.883c-4.414-1.766-6.179-7.062-4.414-11.476
			l26.483-61.793c0.883-0.883,1.766-2.648,2.648-3.531l52.966-44.138c3.531-3.531,9.71-2.648,12.359,0.883
			c2.648,3.531,2.648,9.71-0.883,12.359l-51.2,42.372l-25.6,60.028C166.175,377.048,162.644,378.813,159.113,378.813z"/>
		<path style="fill:#FFE100;" d="M220.906,202.262c-4.414,0-8.828-3.531-8.828-7.945c0-0.883-4.414-53.848-35.31-53.848
			c-15.007,0-26.483-4.414-34.428-13.241c-11.476-13.241-9.71-30.897-9.71-31.779c0.883-4.414,5.297-7.945,9.71-7.945
			c4.414,0.883,7.945,5.297,7.945,9.71c0,0-0.883,11.476,5.297,18.538c4.414,4.414,11.476,7.062,21.186,7.062
			c46.786,0,52.966,67.09,52.966,69.738C229.733,197.848,226.202,202.262,220.906,202.262
			C221.789,202.262,220.906,202.262,220.906,202.262z"/>
		<path style="fill:#FFE100;" d="M335.664,511.227c-3.531,0-6.179-1.766-7.945-5.297l-35.31-70.621
			c-0.883-1.766-0.883-4.414,0-7.062l24.717-66.207l-31.779-40.607c-2.648-3.531-2.648-9.71,1.766-12.359
			c3.531-2.648,9.71-2.648,12.359,1.766l35.31,44.138c1.766,2.648,2.648,5.297,1.766,8.828l-24.717,67.09l33.545,67.09
			c1.766,4.414,0,9.71-3.531,11.476S337.43,511.227,335.664,511.227z"/>
		<path style="fill:#FFE100;" d="M370.975,378.813c-3.531,0-7.062-1.766-7.945-5.297l-25.6-60.028l-51.2-42.372
			c-3.531-3.531-4.414-8.828-0.883-12.359c3.531-3.531,8.828-4.414,12.359-0.883l52.966,44.138c0.883,0.883,1.766,1.766,2.648,3.531
			l26.483,61.793c1.766,4.414,0,9.71-4.414,11.476C373.623,378.813,371.858,378.813,370.975,378.813z"/>
		<path style="fill:#FFE100;" d="M309.182,202.262L309.182,202.262c-5.297,0-8.828-4.414-8.828-9.71
			c0-2.648,6.179-69.738,52.966-69.738c9.71,0,16.772-2.648,21.186-7.062c6.179-7.062,5.297-17.655,5.297-18.538
			c-0.883-4.414,2.648-8.828,7.945-9.71c4.414-0.883,8.828,2.648,9.71,7.945c0,0.883,1.766,18.538-9.71,31.779
			c-7.945,8.828-19.421,13.241-34.428,13.241c-30.897,0-35.31,52.966-35.31,53.848C318.009,198.731,313.595,202.262,309.182,202.262
			z"/>
		<path style="fill:#FFE100;" d="M291.527,193.434c0,0,188.028,30.897,211.862,61.793c0,0,7.062,44.138-61.793,44.138
			C441.595,299.365,324.189,309.076,291.527,193.434"/>
	</g>
	<path style="fill:#FFA800;" d="M503.389,255.227c-23.835-30.897-211.862-61.793-211.862-61.793
		c0.883,1.766,0.883,3.531,1.766,5.297c52.966,9.71,165.959,33.545,183.614,56.497c0,0,6.179,40.607-53.848,44.138
		c11.476,0.883,18.538,0,18.538,0C510.451,299.365,503.389,255.227,503.389,255.227"/>
	<path style="fill:#FFE100;" d="M220.906,193.434c0,0-188.028,30.897-211.862,61.793c0,0-7.062,44.138,61.793,44.138
		C70.837,299.365,188.244,308.193,220.906,193.434"/>
	<path style="fill:#FFFFFF;" d="M9.044,255.227c23.834-30.897,211.862-61.793,211.862-61.793c-0.883,1.766-0.883,3.531-1.766,5.297
		c-52.966,9.71-165.959,32.662-183.614,56.497c0,0-6.179,40.607,53.848,44.138c-11.476,0-18.538,0-18.538,0
		C1.982,299.365,9.044,255.227,9.044,255.227"/>
	<path style="fill:#FFE100;" d="M291.527,219.917c0,34.428-15.89,61.793-35.31,61.793s-35.31-27.366-35.31-61.793
		s15.89-61.793,35.31-61.793S291.527,185.489,291.527,219.917"/>
	<path style="fill:#FFA800;" d="M256.216,158.124c-2.648,0-6.179,0.883-8.828,1.766c15.007,7.062,26.483,30.897,26.483,60.028
		s-11.476,52.966-26.483,60.028c2.648,0.883,6.179,1.766,8.828,1.766c19.421,0,35.31-27.366,35.31-61.793
		S275.637,158.124,256.216,158.124"/>
	<path style="fill:#FFE100;" d="M282.699,334.676c0,29.131-11.476,52.966-26.483,52.966c-15.007,0-26.483-23.835-26.483-52.966
		c0-29.131,11.476-52.966,26.483-52.966C271.223,281.71,282.699,305.545,282.699,334.676"/>
	<path style="fill:#FFA800;" d="M256.216,281.71c-3.531,0-6.179,0.883-8.828,2.648c10.593,7.062,17.655,26.483,17.655,50.317
		c0,23.834-7.062,42.372-17.655,50.317c2.648,1.766,5.297,2.648,8.828,2.648c15.007,0,26.483-23.835,26.483-52.966
		C282.699,305.545,271.223,281.71,256.216,281.71"/>
	<path style="fill:#FFE100;" d="M282.699,127.227c0,16.772-11.476,30.897-26.483,30.897c-15.007,0-26.483-14.124-26.483-30.897
		s11.476-30.897,26.483-30.897C271.223,96.331,282.699,110.455,282.699,127.227"/>
	<path style="fill:#FFA800;" d="M256.216,96.331c-3.531,0-6.179,0.883-8.828,1.766c10.593,4.414,17.655,15.89,17.655,29.131
		s-7.062,24.717-17.655,29.131c2.648,0.883,5.297,1.766,8.828,1.766c15.007,0,26.483-14.124,26.483-30.897
		S271.223,96.331,256.216,96.331"/>
	<path d="M256.216,290.538c-24.717,0-44.138-30.897-44.138-70.621s19.421-70.621,44.138-70.621s44.138,30.897,44.138,70.621
		S280.933,290.538,256.216,290.538z M256.216,166.951c-12.359,0-26.483,22.069-26.483,52.966s14.124,52.966,26.483,52.966
		s26.483-22.069,26.483-52.966S268.575,166.951,256.216,166.951z"/>
	<path d="M256.216,396.469c-20.303,0-35.31-26.483-35.31-61.793s15.007-61.793,35.31-61.793s35.31,26.483,35.31,61.793
		S276.52,396.469,256.216,396.469z M256.216,290.538c-7.062,0-17.655,16.772-17.655,44.138c0,27.365,10.593,44.138,17.655,44.138
		c7.062,0,17.655-16.772,17.655-44.138C273.871,307.31,263.278,290.538,256.216,290.538z"/>
	<path d="M256.216,166.951c-19.421,0-35.31-17.655-35.31-39.724s15.89-39.724,35.31-39.724s35.31,17.655,35.31,39.724
		S275.637,166.951,256.216,166.951z M256.216,105.158c-9.71,0-17.655,9.71-17.655,22.069s7.945,22.069,17.655,22.069
		c9.71,0,17.655-9.71,17.655-22.069S265.927,105.158,256.216,105.158z"/>
	<path d="M256.216,105.158c-5.297,0-8.828-3.531-8.828-8.828V8.055c0-5.297,3.531-8.828,8.828-8.828
		c5.297,0,8.828,3.531,8.828,8.828v88.276C265.044,101.627,261.513,105.158,256.216,105.158z"/>
	<path d="M77.016,308.193L77.016,308.193c-4.414,0-7.062,0-7.062,0l0,0c-27.366,0-47.669-7.062-59.145-21.186
		C-2.432,272,0.216,254.345,0.216,253.462c0-1.766,0.883-2.648,1.766-3.531c24.717-31.779,185.379-60.028,217.159-65.324
		c2.648-0.883,6.179,0.883,7.945,2.648c1.766,1.766,2.648,5.297,1.766,7.945C200.602,300.248,105.264,308.193,77.016,308.193z
		 M17.871,258.758c0,3.531,0.883,10.593,6.179,17.655c7.945,8.828,24.717,14.124,46.786,14.124
		c7.062,0,103.283,5.297,136.828-85.628C137.927,217.269,37.292,240.22,17.871,258.758z"/>
	<path d="M185.595,511.227c-0.883,0-2.648,0-3.531-0.883c-4.414-1.766-6.179-7.062-3.531-11.476l33.545-67.09l-24.717-67.09
		c-0.883-2.648-0.883-6.179,1.766-8.828l35.31-44.138c2.648-3.531,8.828-4.414,12.359-1.766c3.531,2.648,4.414,8.828,1.766,12.359
		l-31.779,40.607l24.717,66.207c0.883,2.648,0.883,4.414,0,7.062l-35.31,70.621C191.775,509.462,189.127,511.227,185.595,511.227z"
		/>
	<path d="M150.285,378.813c-0.883,0-2.648,0-3.531-0.883c-4.414-1.766-6.179-7.062-4.414-11.476l26.483-61.793
		c0.883-0.883,1.766-2.648,2.648-3.531l52.966-44.138c3.531-3.531,9.71-2.648,12.359,0.883c2.648,3.531,2.648,9.71-0.883,12.359
		l-51.2,42.372l-25.6,60.028C157.347,377.048,153.816,378.813,150.285,378.813z"/>
	<path d="M212.078,202.262c-4.414,0-8.828-3.531-8.828-7.945c0-0.883-4.414-53.848-35.31-53.848
		c-15.007,0-26.483-4.414-34.428-13.241c-11.476-13.241-9.71-30.897-9.71-31.779c0.883-4.414,5.297-7.945,9.71-7.945
		c4.414,0.883,7.945,5.297,7.945,9.71c0,0-0.883,11.476,5.297,18.538c4.414,4.414,11.476,7.062,21.186,7.062
		c46.786,0,52.966,67.09,52.966,69.738C220.906,197.848,217.375,202.262,212.078,202.262
		C212.961,202.262,212.078,202.262,212.078,202.262z"/>
	<path d="M435.416,308.193c-28.248,0-122.703-7.945-151.834-112.993c-0.883-2.648,0-6.179,1.766-7.945
		c1.766-2.648,5.297-3.531,7.945-2.648c31.779,5.297,193.324,33.545,217.159,65.324c0.883,0.883,1.766,2.648,1.766,3.531
		c0,0.883,2.648,18.538-9.71,33.545c-12.359,14.124-32.662,21.186-60.91,21.186C441.595,308.193,438.947,308.193,435.416,308.193z
		 M304.768,204.91c30.014,79.448,106.814,86.51,130.648,86.51c3.531,0,5.297,0,5.297,0c22.952,0,38.841-5.297,47.669-14.124
		c5.297-6.179,6.179-13.241,6.179-17.655C475.14,240.22,374.506,217.269,304.768,204.91z"/>
	<path d="M326.837,511.227c-3.531,0-6.179-1.766-7.945-5.297l-35.31-70.621c-0.883-1.766-0.883-4.414,0-7.062l24.717-66.207
		l-31.779-40.607c-2.648-3.531-2.648-9.71,1.766-12.359c3.531-2.648,9.71-2.648,12.359,1.766l35.31,44.138
		c1.766,2.648,2.648,5.297,1.766,8.828l-24.717,67.09l33.545,67.09c1.766,4.414,0,9.71-3.531,11.476
		C329.485,511.227,328.602,511.227,326.837,511.227z"/>
	<path d="M362.147,378.813c-3.531,0-7.062-1.766-7.945-5.297l-25.6-60.028l-51.2-42.372c-3.531-3.531-4.414-8.828-0.883-12.359
		c3.531-3.531,8.828-4.414,12.359-0.883l52.966,44.138c0.883,0.883,1.766,1.766,2.648,3.531l26.483,61.793
		c1.766,4.414,0,9.71-4.414,11.476C364.796,378.813,363.03,378.813,362.147,378.813z"/>
	<path d="M300.354,202.262L300.354,202.262c-5.297,0-8.828-4.414-8.828-9.71c0-2.648,6.179-69.738,52.966-69.738
		c9.71,0,16.772-2.648,21.186-7.062c6.179-7.062,5.297-17.655,5.297-18.538c-0.883-4.414,2.648-8.828,7.945-9.71
		c4.414-0.883,8.828,2.648,9.71,7.945c0,0.883,1.766,18.538-9.71,31.779c-7.945,8.828-19.421,13.241-34.428,13.241
		c-30.897,0-35.31,52.966-35.31,53.848C309.182,198.731,304.768,202.262,300.354,202.262z"/>
</g>
</svg>